<svg xmlns="http://www.w3.org/2000/svg" xmlns:v="http://vecta.io" xmlns:xlink="http://www.w3.org/1999/xlink" viewBox="0 0 61 81" stroke="#000" stroke-linecap="round" stroke-linejoin="round" fill="#fff" fill-rule="evenodd" font-family="Roboto" font-size="14px" text-anchor="middle" width="300" height="300"><defs><style type="text/css"></style></defs><use xlink:href="#UBOc1SICr5AW1XGzMqCoVb.sym" x="0.5" y="0.5"><title>SQL Database (generic)</title></use><symbol id="UBOc1SICr5AW1XGzMqCoVb.sym" overflow="visible" v:tags="azure, cloud, sql, database, db"><title>SQL Database (generic)</title><desc>Managed cloud database.</desc><g id="j4rxe0fs5id" class="Group.cls" transform="translate(0 0)" v:size="61,81,0.5,0.5"><g id="j4rxe0cg5hv" transform="translate(0 10.9289)"><path d="M 0 0 L 0 58.1403 C 0 64.1765 13.4322 69.0711 30 69.0711 L 30 0 C 30 0 0 0 0 0 Z" fill="#0072c6" stroke="none"></path></g><g id="j4rxe0cu5hw" transform="translate(29.5887 10.9289)"><path d="M 0 69.0695 L 0.4113 69.0695 C 16.9791 69.0695 30.4113 64.178 30.4113 58.1403 L 30.4113 0 L 0 0 L 0 69.0695 Z" fill="#0072c6" stroke="none"></path></g><g id="j4rxe0d55hx" transform="translate(29.5887 10.9289)"><path d="M 0 69.0695 L 0.4113 69.0695 C 16.9791 69.0695 30.4113 64.178 30.4113 58.1403 L 30.4113 0 L 0 0 L 0 69.0695 Z" opacity="0.15" stroke="none"></path></g><g id="j4rxe0dg5hy" transform="translate(0 0)"><path d="M 60 10.9289 C 60 16.965 46.5678 21.8579 30 21.8579 C 13.4322 21.8579 0 16.965 0 10.9289 C 0 4.893 13.4322 0 30 0 C 46.5678 0 60 4.893 60 10.9289" stroke="none"></path></g><g id="j4rxe0dt5hz" transform="translate(6.132 3.088)"><path d="M 47.7344 7.2114 C 47.7344 11.1964 37.0489 14.4228 23.868 14.4228 C 10.6872 14.4228 0 11.1964 0 7.2114 C 0 3.2282 10.6872 0 23.868 0 C 37.0489 0 47.7344 3.2282 47.7344 7.2114" fill="#7fba00" stroke="none"></path></g><g id="j4rxe0e45i0" transform="translate(6.1336 3.0896)"><path d="M 42.7326 11.6166 C 45.857 10.3977 47.7344 8.8714 47.7344 7.213 C 47.7344 3.2283 37.0489 0 23.8664 0 C 10.6856 0 0 3.2283 0 7.213 C 0 8.8714 1.8774 10.3977 5.0019 11.6166 C 9.365 9.913 16.1835 8.8136 23.8664 8.8136 C 31.5509 8.8136 38.3662 9.913 42.7326 11.6166" fill="#b8d432" stroke="none"></path></g><g id="j4rxe0ej5i1" transform="translate(8.1407 37.2758)"><path d="M 12.331 14.0107 C 12.331 15.8173 11.6795 17.2162 10.3765 18.208 C 9.0737 19.1999 7.2745 19.6958 4.9778 19.6958 C 3.0233 19.6958 1.391 19.3416 0.0783 18.6331 L 0.0783 14.3825 C 1.5926 15.6754 3.2603 16.3228 5.082 16.3228 C 5.9622 16.3228 6.6425 16.1455 7.1225 15.7913 C 7.6028 15.4372 7.843 14.9686 7.843 14.3825 C 7.843 13.8078 7.6124 13.3071 7.1499 12.8821 C 6.6872 12.457 5.7477 11.9079 4.3313 11.235 C 1.4437 9.8727 0 8.0115 0 5.6578 C 0 3.9495 0.629 2.5794 1.8885 1.5474 C 3.1467 0.5169 4.8193 0 6.9049 0 C 8.7536 0 10.2839 0.2447 11.5004 0.7309 L 11.5004 4.7014 C 10.2245 3.8158 8.7712 3.3732 7.1435 3.3732 C 6.3255 3.3732 5.6789 3.5469 5.2035 3.8964 C 4.7281 4.2474 4.4911 4.7142 4.4911 5.2971 C 4.4911 5.8993 4.6818 6.3936 5.066 6.7784 C 5.4485 7.1633 6.2344 7.6397 7.4219 8.2065 C 9.1921 9.0485 10.452 9.9018 11.2057 10.7697 C 11.9548 11.639 12.331 12.7194 12.331 14.0107 Z" stroke="none"></path></g><g id="j4rxe0ey5i2" transform="translate(22.2914 37.2758)"><path d="M 18.5508 9.7086 C 18.5508 11.9482 18.0436 13.8931 17.0319 15.5386 C 16.0188 17.1856 14.5943 18.34 12.7554 19.0051 L 18.2468 24.1185 L 12.7024 24.1185 L 8.781 19.6958 C 7.1003 19.6344 5.5829 19.1869 4.232 18.3546 C 2.8812 17.5238 1.8375 16.3823 1.103 14.9348 C 0.3683 13.4875 0 11.8725 0 10.0935 C 0 8.1196 0.3985 6.3598 1.1939 4.814 C 1.9911 3.2684 3.1099 2.0802 4.5538 1.2478 C 5.9976 0.4171 7.6509 0 9.5188 0 C 11.2602 0 12.8208 0.4025 14.1988 1.2093 C 15.5755 2.0143 16.6447 3.1605 17.4065 4.6483 C 18.17 6.1359 18.5508 7.8232 18.5508 9.7086 Z M 14.0628 9.9486 C 14.0628 8.018 13.6451 6.4935 12.808 5.3728 C 11.9708 4.2521 10.828 3.692 9.3747 3.692 C 7.8957 3.692 6.7128 4.2537 5.8231 5.3775 C 4.9347 6.5031 4.4898 7.9987 4.4898 9.8665 C 4.4898 11.7261 4.9251 13.2104 5.7957 14.3214 C 6.6681 15.4324 7.8238 15.9879 9.2675 15.9879 C 10.7386 15.9879 11.9036 15.4501 12.7665 14.3747 C 13.6306 13.3006 14.0628 11.8242 14.0628 9.9486 Z" stroke="none"></path></g><g id="j4rxe0fa5i3" transform="translate(43.9716 37.5963)"><path d="M 11.2745 19.0434 L 0 19.0434 L 0 0 L 4.2641 0 L 4.2641 15.5643 L 11.2745 15.5643 Z" stroke="none"></path></g></g></symbol></svg>